# xmcd
#
# Track frame offsets:
#	150
#	17322
#	48725
#	74615
#	101182
#	119127
#	138180
#	162060
#	182492
#	203165
#	222082
#
# Disc length: 3187 seconds
#
# Revision: 6
# Processed by: cddbd v1.5.2PL0 Copyright (c) Steve Scherf et al.
# Submitted via: EZCDAudioConverter 7.0.7.1
#
DISCID=9e0c710b
DTITLE=Kirk Franklin and The Family - Christmas
DYEAR=1995
DGENRE=Christmas
TTITLE0=Silent Night
TTITLE1=Now Behold The Lamb
TTITLE2=Jesus Is The Reason for The Season
TTITLE3=Go Tell It On The Mountain
TTITLE4=They Need to Know
TTITLE5=There's No Christmas without You
TTITLE6=O Come, All Ye Faithful
TTITLE7=The Night That Christ Was Born
TTITLE8=Thank You for Your Child
TTITLE9=Love Song
TTITLE10=Silver and Gold
EXTD=
EXTT0=
EXTT1=
EXTT2=
EXTT3=
EXTT4=
EXTT5=
EXTT6=
EXTT7=
EXTT8=
EXTT9=
EXTT10=
PLAYORDER=
